<svg width="32" height="33" viewBox="0 0 32 33" fill="none" xmlns="http://www.w3.org/2000/svg">
<path d="M17.2468 7.64062C18.0598 8.77878 18.4968 10.1425 18.4968 11.5412V12.8906C18.9253 12.8906 19.3414 12.7474 19.6791 12.4837C20.0168 12.22 20.2567 11.8511 20.3606 11.4354L20.4968 10.8906L20.8663 11.334C21.4621 12.0489 21.7854 12.9516 21.7789 13.8821C21.7725 14.8127 21.4367 15.7108 20.8311 16.4174C20.6041 16.6821 20.4855 17.0228 20.4988 17.3712C20.5122 17.7197 20.6565 18.0502 20.9031 18.2968C21.0407 18.4345 21.2059 18.5416 21.3877 18.6111C21.5696 18.6806 21.7641 18.7109 21.9584 18.7002C22.1528 18.6894 22.3427 18.6377 22.5158 18.5486C22.6889 18.4594 22.8412 18.3347 22.9628 18.1827L23.9968 16.8906L24.9968 19.3906C25.4503 20.9021 25.486 22.5083 25.1002 24.0385C24.7144 25.5687 23.9215 26.9659 22.8056 28.0818L22.6795 28.2079C20.9619 29.9256 18.6322 30.8906 16.2031 30.8906H15.1828C13.6011 30.8906 12.0464 30.481 10.67 29.7017C9.29359 28.9224 8.14247 27.8 7.3287 26.4437C6.35428 24.8197 5.90726 22.9335 6.0492 21.0448C6.19114 19.1562 6.91505 17.358 8.12127 15.8978L12.169 10.9979C12.5679 10.515 12.8242 9.93056 12.9093 9.31007C12.9943 8.68959 12.9046 8.05769 12.6503 7.48537C12.3276 6.7594 12.2719 5.94271 12.4932 5.17967C12.7144 4.41663 13.1983 3.75637 13.8593 3.31562L15.9968 1.89062V3.74007C15.9968 5.13875 16.4339 6.50247 17.2468 7.64062Z" fill="url(#paint0_linear_1_355)"/>
<path d="M19.689 27.4788L19.6934 27.4744C20.4711 26.6907 21.026 25.714 21.3009 24.6447C21.5758 23.5754 21.5608 22.4522 21.2575 21.3906L19.8029 22.8452C19.6657 22.9825 19.5027 23.0914 19.3233 23.1657C19.144 23.24 18.9517 23.2783 18.7576 23.2783C18.5635 23.2783 18.3712 23.24 18.1919 23.1657C18.0125 23.0914 17.8495 22.9825 17.7123 22.8452C17.4514 22.5844 17.2974 22.2354 17.2807 21.8669C17.2639 21.4984 17.3855 21.1369 17.6217 20.8535C18.108 20.27 18.4136 19.5573 18.5012 18.8028C18.5887 18.0483 18.4545 17.2847 18.1148 16.6053L15.7575 11.8906L15.395 15.8781C15.3515 16.3563 15.2119 16.8209 14.9845 17.2438C14.7571 17.6668 14.4466 18.0394 14.0717 18.3395L12.0109 19.9882C11.4639 20.4258 11.0223 20.9808 10.7188 21.6122C10.4154 22.2436 10.2578 22.9351 10.2578 23.6357V24.2031C10.2578 24.8879 10.4084 25.5642 10.6988 26.1844C10.9892 26.8045 11.4125 27.3532 11.9385 27.7915C12.7902 28.5012 13.8665 28.8849 14.975 28.874L16.4199 28.8597C17.6488 28.8474 18.8234 28.3512 19.689 27.4788Z" fill="#FDD04A"/>
<path d="M7.5 12.3906C7.36739 12.3906 7.24021 12.3379 7.14645 12.2442C7.05268 12.1504 7 12.0232 7 11.8906V10.8906C7 10.758 7.05268 10.6308 7.14645 10.537C7.24021 10.4433 7.36739 10.3906 7.5 10.3906C7.63261 10.3906 7.75979 10.4433 7.85355 10.537C7.94732 10.6308 8 10.758 8 10.8906V11.8906C8 12.0232 7.94732 12.1504 7.85355 12.2442C7.75979 12.3379 7.63261 12.3906 7.5 12.3906Z" fill="#FE691E"/>
<path d="M9 9.89062C8.86739 9.89062 8.74021 9.83794 8.64645 9.74417C8.55268 9.65041 8.5 9.52323 8.5 9.39062V8.39062C8.5 8.25802 8.55268 8.13084 8.64645 8.03708C8.74021 7.94331 8.86739 7.89062 9 7.89062C9.13261 7.89062 9.25979 7.94331 9.35355 8.03708C9.44732 8.13084 9.5 8.25802 9.5 8.39062V9.39062C9.5 9.52323 9.44732 9.65041 9.35355 9.74417C9.25979 9.83794 9.13261 9.89062 9 9.89062Z" fill="#FF8D54"/>
<path d="M7 7.89062C6.86739 7.89062 6.74021 7.83794 6.64645 7.74417C6.55268 7.65041 6.5 7.52323 6.5 7.39062V6.39062C6.5 6.25802 6.55268 6.13084 6.64645 6.03708C6.74021 5.94331 6.86739 5.89062 7 5.89062C7.13261 5.89062 7.25979 5.94331 7.35355 6.03708C7.44732 6.13084 7.5 6.25802 7.5 6.39062V7.39062C7.5 7.52323 7.44732 7.65041 7.35355 7.74417C7.25979 7.83794 7.13261 7.89062 7 7.89062Z" fill="#FFB895"/>
<path d="M24.5 13.8906C24.3674 13.8906 24.2402 13.8379 24.1464 13.7442C24.0527 13.6504 24 13.5232 24 13.3906V12.3906C24 12.258 24.0527 12.1308 24.1464 12.037C24.2402 11.9433 24.3674 11.8906 24.5 11.8906C24.6326 11.8906 24.7598 11.9433 24.8536 12.037C24.9473 12.1308 25 12.258 25 12.3906V13.3906C25 13.5232 24.9473 13.6504 24.8536 13.7442C24.7598 13.8379 24.6326 13.8906 24.5 13.8906Z" fill="#FE691E"/>
<path d="M23 10.3906C22.8674 10.3906 22.7402 10.3379 22.6464 10.2442C22.5527 10.1504 22.5 10.0232 22.5 9.89062V8.89062C22.5 8.75802 22.5527 8.63084 22.6464 8.53708C22.7402 8.44331 22.8674 8.39062 23 8.39062C23.1326 8.39062 23.2598 8.44331 23.3536 8.53708C23.4473 8.63084 23.5 8.75802 23.5 8.89062V9.89062C23.5 10.0232 23.4473 10.1504 23.3536 10.2442C23.2598 10.3379 23.1326 10.3906 23 10.3906Z" fill="#FF8D54"/>
<path d="M25 8.89062C24.8674 8.89062 24.7402 8.83794 24.6464 8.74417C24.5527 8.65041 24.5 8.52324 24.5 8.39062V6.89062C24.5 6.75802 24.5527 6.63084 24.6464 6.53708C24.7402 6.44331 24.8674 6.39062 25 6.39062C25.1326 6.39062 25.2598 6.44331 25.3536 6.53708C25.4473 6.63084 25.5 6.75802 25.5 6.89062V8.39062C25.5 8.52324 25.4473 8.65041 25.3536 8.74417C25.2598 8.83794 25.1326 8.89062 25 8.89062Z" fill="#FFB895"/>
<defs>
<linearGradient id="paint0_linear_1_355" x1="15.6944" y1="1.89062" x2="15.6944" y2="30.8906" gradientUnits="userSpaceOnUse">
<stop stop-color="#FF9159"/>
<stop offset="0.6875" stop-color="#FF7631"/>
<stop offset="1" stop-color="#FF6A1F"/>
</linearGradient>
</defs>
</svg>
