<svg width="660" height="258" viewBox="0 0 660 258" fill="none" xmlns="http://www.w3.org/2000/svg">
<g clip-path="url(#clip0_1_90)">
<path d="M221 178.926C251.667 169.926 380.6 157.326 651 178.926" stroke="#FDD048" stroke-width="4" stroke-linecap="round"/>
</g>
<path d="M12.528 69C10.944 69 9.48 68.616 8.136 67.848C6.84 67.08 5.808 66.048 5.04 64.752C4.272 63.408 3.888 61.944 3.888 60.36V17.16H9.72V60.36C9.72 61.128 9.984 61.8 10.512 62.376C11.088 62.904 11.76 63.168 12.528 63.168H47.088C47.856 63.168 48.504 62.904 49.032 62.376C49.608 61.8 49.896 61.128 49.896 60.36V17.16H55.728V60.36C55.728 61.944 55.344 63.408 54.576 64.752C53.808 66.048 52.752 67.08 51.408 67.848C50.112 68.616 48.672 69 47.088 69H12.528ZM63.513 69V27.24H97.353C98.937 27.24 100.377 27.648 101.673 28.464C103.017 29.232 104.073 30.288 104.841 31.632C105.657 32.928 106.065 34.368 106.065 35.952V69H100.161V35.952C100.161 35.184 99.873 34.536 99.297 34.008C98.769 33.432 98.121 33.144 97.353 33.144H72.297C71.529 33.144 70.857 33.432 70.281 34.008C69.705 34.536 69.417 35.184 69.417 35.952V69H63.513ZM122.214 69C120.63 69 119.166 68.616 117.822 67.848C116.526 67.032 115.47 65.976 114.654 64.68C113.886 63.336 113.502 61.872 113.502 60.288V13.56H119.406V60.288C119.406 61.056 119.67 61.728 120.198 62.304C120.774 62.832 121.446 63.096 122.214 63.096H129.27V69H122.214ZM142.814 69C141.23 69 139.766 68.616 138.422 67.848C137.126 67.032 136.07 65.976 135.254 64.68C134.486 63.336 134.102 61.872 134.102 60.288V35.952C134.102 34.368 134.486 32.928 135.254 31.632C136.07 30.288 137.126 29.232 138.422 28.464C139.766 27.648 141.23 27.24 142.814 27.24H167.87C169.502 27.24 170.966 27.648 172.262 28.464C173.606 29.232 174.662 30.288 175.43 31.632C176.246 32.928 176.654 34.368 176.654 35.952V51.072H140.006V60.288C140.006 61.056 140.27 61.728 140.798 62.304C141.374 62.832 142.046 63.096 142.814 63.096H176.654V69H142.814ZM140.006 45.168H170.678V35.952C170.678 35.184 170.39 34.536 169.814 34.008C169.286 33.432 168.638 33.144 167.87 33.144H142.814C142.046 33.144 141.374 33.432 140.798 34.008C140.27 34.536 140.006 35.184 140.006 35.952V45.168ZM192.737 69C191.153 69 189.689 68.616 188.345 67.848C187.049 67.032 185.993 65.976 185.177 64.68C184.409 63.336 184.025 61.872 184.025 60.288V45.168H220.601V35.952C220.601 35.184 220.313 34.536 219.737 34.008C219.209 33.432 218.561 33.144 217.793 33.144H184.025V27.24H217.793C219.425 27.24 220.889 27.648 222.185 28.464C223.529 29.232 224.585 30.288 225.353 31.632C226.169 32.928 226.577 34.368 226.577 35.952V69H192.737ZM192.737 63.096H220.601V51.072H189.929V60.288C189.929 61.056 190.193 61.728 190.721 62.304C191.297 62.832 191.969 63.096 192.737 63.096ZM241.035 69C239.451 69 237.987 68.616 236.643 67.848C235.347 67.032 234.291 65.976 233.475 64.68C232.707 63.336 232.323 61.872 232.323 60.288V59.712H238.227V60.288C238.227 61.056 238.491 61.728 239.019 62.304C239.595 62.832 240.267 63.096 241.035 63.096H266.091C266.859 63.096 267.507 62.832 268.035 62.304C268.611 61.728 268.899 61.056 268.899 60.288V53.88C268.899 53.112 268.611 52.464 268.035 51.936C267.507 51.36 266.859 51.072 266.091 51.072H241.035C239.451 51.072 237.987 50.688 236.643 49.92C235.347 49.104 234.291 48.048 233.475 46.752C232.707 45.408 232.323 43.944 232.323 42.36V35.952C232.323 34.368 232.707 32.928 233.475 31.632C234.291 30.288 235.347 29.232 236.643 28.464C237.987 27.648 239.451 27.24 241.035 27.24H266.091C267.723 27.24 269.187 27.648 270.483 28.464C271.827 29.232 272.883 30.288 273.651 31.632C274.467 32.928 274.875 34.368 274.875 35.952V36.528H268.899V35.952C268.899 35.184 268.611 34.536 268.035 34.008C267.507 33.432 266.859 33.144 266.091 33.144H241.035C240.267 33.144 239.595 33.432 239.019 34.008C238.491 34.536 238.227 35.184 238.227 35.952V42.36C238.227 43.128 238.491 43.8 239.019 44.376C239.595 44.904 240.267 45.168 241.035 45.168H266.091C267.723 45.168 269.187 45.576 270.483 46.392C271.827 47.16 272.883 48.216 273.651 49.56C274.467 50.856 274.875 52.296 274.875 53.88V60.288C274.875 61.872 274.467 63.336 273.651 64.68C272.883 65.976 271.827 67.032 270.483 67.848C269.187 68.616 267.723 69 266.091 69H241.035ZM282.115 69V13.56H288.019V27.24H315.955C317.539 27.24 318.979 27.648 320.275 28.464C321.619 29.232 322.675 30.288 323.443 31.632C324.259 32.928 324.667 34.368 324.667 35.952V69H318.763V35.952C318.763 35.184 318.475 34.536 317.899 34.008C317.371 33.432 316.723 33.144 315.955 33.144H290.899C290.131 33.144 289.459 33.432 288.883 34.008C288.307 34.536 288.019 35.184 288.019 35.952V69H282.115ZM370.418 69V22.992H347.378V17.16H399.218V22.992H376.25V69H370.418ZM404.458 69V13.56H410.362V27.24H438.298C439.882 27.24 441.322 27.648 442.618 28.464C443.962 29.232 445.018 30.288 445.786 31.632C446.602 32.928 447.01 34.368 447.01 35.952V69H441.106V35.952C441.106 35.184 440.818 34.536 440.242 34.008C439.714 33.432 439.066 33.144 438.298 33.144H413.242C412.474 33.144 411.802 33.432 411.226 34.008C410.65 34.536 410.362 35.184 410.362 35.952V69H404.458ZM461.048 69C459.464 69 458 68.616 456.656 67.848C455.36 67.032 454.304 65.976 453.488 64.68C452.72 63.336 452.336 61.872 452.336 60.288V35.952C452.336 34.368 452.72 32.928 453.488 31.632C454.304 30.288 455.36 29.232 456.656 28.464C458 27.648 459.464 27.24 461.048 27.24H486.104C487.736 27.24 489.2 27.648 490.496 28.464C491.84 29.232 492.896 30.288 493.664 31.632C494.48 32.928 494.888 34.368 494.888 35.952V51.072H458.24V60.288C458.24 61.056 458.504 61.728 459.032 62.304C459.608 62.832 460.28 63.096 461.048 63.096H494.888V69H461.048ZM458.24 45.168H488.912V35.952C488.912 35.184 488.624 34.536 488.048 34.008C487.52 33.432 486.872 33.144 486.104 33.144H461.048C460.28 33.144 459.608 33.432 459.032 34.008C458.504 34.536 458.24 35.184 458.24 35.952V45.168ZM4.032 155V103.16H12.024L50.04 148.376V103.16H55.872V155H47.88L9.864 109.784V155H4.032ZM72.2903 155C70.7063 155 69.2423 154.616 67.8983 153.848C66.6023 153.032 65.5463 151.976 64.7303 150.68C63.9623 149.336 63.5783 147.872 63.5783 146.288V121.952C63.5783 120.368 63.9623 118.928 64.7303 117.632C65.5463 116.288 66.6023 115.232 67.8983 114.464C69.2423 113.648 70.7063 113.24 72.2903 113.24H97.3463C98.9783 113.24 100.442 113.648 101.738 114.464C103.082 115.232 104.138 116.288 104.906 117.632C105.722 118.928 106.13 120.368 106.13 121.952V137.072H69.4823V146.288C69.4823 147.056 69.7463 147.728 70.2743 148.304C70.8503 148.832 71.5223 149.096 72.2903 149.096H106.13V155H72.2903ZM69.4823 131.168H100.154V121.952C100.154 121.184 99.8663 120.536 99.2903 120.008C98.7623 119.432 98.1143 119.144 97.3463 119.144H72.2903C71.5223 119.144 70.8503 119.432 70.2743 120.008C69.7463 120.536 69.4823 121.184 69.4823 121.952V131.168ZM111.875 155V154.928L129.299 133.76L111.875 113.312V113.24H119.651L133.187 129.08L146.795 113.24H154.499V113.312L137.075 133.76L154.571 154.928V155H146.795L133.187 138.296L119.651 155H111.875ZM170.942 155C169.31 155 167.822 154.616 166.478 153.848C165.182 153.032 164.15 151.976 163.382 150.68C162.614 149.336 162.23 147.872 162.23 146.288V99.56H168.134V113.24H186.206V119.144H168.134V146.288C168.134 147.056 168.398 147.728 168.926 148.304C169.502 148.832 170.174 149.096 170.942 149.096H186.206V155H170.942ZM220.235 155C218.651 155 217.187 154.616 215.843 153.848C214.547 153.08 213.515 152.048 212.747 150.752C211.979 149.408 211.595 147.944 211.595 146.36V111.8C211.595 110.216 211.979 108.776 212.747 107.48C213.515 106.136 214.547 105.08 215.843 104.312C217.187 103.544 218.651 103.16 220.235 103.16H254.795C256.379 103.16 257.819 103.544 259.115 104.312C260.459 105.08 261.515 106.136 262.283 107.48C263.051 108.776 263.435 110.216 263.435 111.8V113.888H257.603V111.8C257.603 111.032 257.315 110.384 256.739 109.856C256.211 109.28 255.563 108.992 254.795 108.992H220.235C219.467 108.992 218.795 109.28 218.219 109.856C217.691 110.384 217.427 111.032 217.427 111.8V146.36C217.427 147.128 217.691 147.8 218.219 148.376C218.795 148.904 219.467 149.168 220.235 149.168H254.795C255.563 149.168 256.211 148.904 256.739 148.376C257.315 147.8 257.603 147.128 257.603 146.36V133.544H244.787V127.64H263.435V146.36C263.435 147.944 263.051 149.408 262.283 150.752C261.515 152.048 260.459 153.08 259.115 153.848C257.819 154.616 256.379 155 254.795 155H220.235ZM279.712 155C278.128 155 276.664 154.616 275.32 153.848C274.024 153.032 272.968 151.976 272.152 150.68C271.384 149.336 271 147.872 271 146.288V121.952C271 120.368 271.384 118.928 272.152 117.632C272.968 116.288 274.024 115.232 275.32 114.464C276.664 113.648 278.128 113.24 279.712 113.24H304.768C306.4 113.24 307.864 113.648 309.16 114.464C310.504 115.232 311.56 116.288 312.328 117.632C313.144 118.928 313.552 120.368 313.552 121.952V137.072H276.904V146.288C276.904 147.056 277.168 147.728 277.696 148.304C278.272 148.832 278.944 149.096 279.712 149.096H313.552V155H279.712ZM276.904 131.168H307.576V121.952C307.576 121.184 307.288 120.536 306.712 120.008C306.184 119.432 305.536 119.144 304.768 119.144H279.712C278.944 119.144 278.272 119.432 277.696 120.008C277.168 120.536 276.904 121.184 276.904 121.952V131.168ZM321.068 155V113.24H354.908C356.492 113.24 357.932 113.648 359.228 114.464C360.572 115.232 361.628 116.288 362.396 117.632C363.212 118.928 363.62 120.368 363.62 121.952V155H357.716V121.952C357.716 121.184 357.428 120.536 356.852 120.008C356.324 119.432 355.676 119.144 354.908 119.144H329.852C329.084 119.144 328.412 119.432 327.836 120.008C327.26 120.536 326.972 121.184 326.972 121.952V155H321.068ZM379.697 155C378.113 155 376.649 154.616 375.305 153.848C374.009 153.032 372.953 151.976 372.137 150.68C371.369 149.336 370.985 147.872 370.985 146.288V121.952C370.985 120.368 371.369 118.928 372.137 117.632C372.953 116.288 374.009 115.232 375.305 114.464C376.649 113.648 378.113 113.24 379.697 113.24H404.753C406.385 113.24 407.849 113.648 409.145 114.464C410.489 115.232 411.545 116.288 412.312 117.632C413.129 118.928 413.537 120.368 413.537 121.952V137.072H376.889V146.288C376.889 147.056 377.153 147.728 377.681 148.304C378.257 148.832 378.929 149.096 379.697 149.096H413.537V155H379.697ZM376.889 131.168H407.561V121.952C407.561 121.184 407.273 120.536 406.697 120.008C406.169 119.432 405.521 119.144 404.753 119.144H379.697C378.929 119.144 378.257 119.432 377.681 120.008C377.153 120.536 376.889 121.184 376.889 121.952V131.168ZM420.557 155V121.952C420.557 120.368 420.941 118.928 421.709 117.632C422.525 116.288 423.581 115.232 424.877 114.464C426.221 113.648 427.685 113.24 429.269 113.24H452.741V119.144H429.269C428.501 119.144 427.829 119.432 427.253 120.008C426.725 120.536 426.461 121.184 426.461 121.952V155H420.557ZM466.112 155C464.528 155 463.064 154.616 461.72 153.848C460.424 153.032 459.368 151.976 458.552 150.68C457.784 149.336 457.4 147.872 457.4 146.288V131.168H493.976V121.952C493.976 121.184 493.688 120.536 493.112 120.008C492.584 119.432 491.936 119.144 491.168 119.144H457.4V113.24H491.168C492.8 113.24 494.264 113.648 495.56 114.464C496.904 115.232 497.96 116.288 498.728 117.632C499.544 118.928 499.952 120.368 499.952 121.952V155H466.112ZM466.112 149.096H493.976V137.072H463.304V146.288C463.304 147.056 463.568 147.728 464.096 148.304C464.672 148.832 465.344 149.096 466.112 149.096ZM516.176 155C514.544 155 513.056 154.616 511.712 153.848C510.416 153.032 509.384 151.976 508.616 150.68C507.848 149.336 507.464 147.872 507.464 146.288V99.56H513.368V113.24H531.44V119.144H513.368V146.288C513.368 147.056 513.632 147.728 514.16 148.304C514.736 148.832 515.408 149.096 516.176 149.096H531.44V155H516.176ZM537.275 155V113.24H543.179V155H537.275ZM537.275 105.464V99.56H543.179V105.464H537.275ZM560.892 155C559.308 155 557.844 154.616 556.5 153.848C555.204 153.032 554.148 151.976 553.332 150.68C552.564 149.336 552.18 147.872 552.18 146.288V121.952C552.18 120.368 552.564 118.928 553.332 117.632C554.148 116.288 555.204 115.232 556.5 114.464C557.844 113.648 559.308 113.24 560.892 113.24H585.948C587.58 113.24 589.044 113.648 590.34 114.464C591.684 115.232 592.74 116.288 593.508 117.632C594.324 118.928 594.732 120.368 594.732 121.952V146.288C594.732 147.872 594.324 149.336 593.508 150.68C592.74 151.976 591.684 153.032 590.34 153.848C589.044 154.616 587.58 155 585.948 155H560.892ZM560.892 149.096H585.948C586.716 149.096 587.364 148.832 587.892 148.304C588.468 147.728 588.756 147.056 588.756 146.288V121.952C588.756 121.184 588.468 120.536 587.892 120.008C587.364 119.432 586.716 119.144 585.948 119.144H560.892C560.124 119.144 559.452 119.432 558.876 120.008C558.348 120.536 558.084 121.184 558.084 121.952V146.288C558.084 147.056 558.348 147.728 558.876 148.304C559.452 148.832 560.124 149.096 560.892 149.096ZM601.193 155V113.24H635.033C636.617 113.24 638.057 113.648 639.353 114.464C640.697 115.232 641.753 116.288 642.521 117.632C643.337 118.928 643.745 120.368 643.745 121.952V155H637.841V121.952C637.841 121.184 637.553 120.536 636.977 120.008C636.449 119.432 635.801 119.144 635.033 119.144H609.977C609.209 119.144 608.537 119.432 607.961 120.008C607.385 120.536 607.097 121.184 607.097 121.952V155H601.193ZM12.528 241C10.944 241 9.48 240.616 8.136 239.848C6.84 239.08 5.808 238.048 5.04 236.752C4.272 235.408 3.888 233.944 3.888 232.36V197.8C3.888 196.216 4.272 194.776 5.04 193.48C5.808 192.136 6.84 191.08 8.136 190.312C9.48 189.544 10.944 189.16 12.528 189.16H47.088C48.672 189.16 50.112 189.544 51.408 190.312C52.752 191.08 53.808 192.136 54.576 193.48C55.344 194.776 55.728 196.216 55.728 197.8V232.36C55.728 233.944 55.344 235.408 54.576 236.752C53.808 238.048 52.752 239.08 51.408 239.848C50.112 240.616 48.672 241 47.088 241H12.528ZM12.528 235.168H47.088C47.856 235.168 48.504 234.904 49.032 234.376C49.608 233.8 49.896 233.128 49.896 232.36V197.8C49.896 197.032 49.608 196.384 49.032 195.856C48.504 195.28 47.856 194.992 47.088 194.992H12.528C11.76 194.992 11.088 195.28 10.512 195.856C9.984 196.384 9.72 197.032 9.72 197.8V232.36C9.72 233.128 9.984 233.8 10.512 234.376C11.088 234.904 11.76 235.168 12.528 235.168ZM63.441 241V194.272C63.441 192.64 63.825 191.176 64.593 189.88C65.361 188.536 66.393 187.48 67.689 186.712C69.033 185.944 70.521 185.56 72.153 185.56H87.417V191.464H72.153C71.385 191.464 70.713 191.752 70.137 192.328C69.609 192.856 69.345 193.504 69.345 194.272V199.24H87.417V205.144H69.345V241H63.441ZM121.235 241C119.651 241 118.187 240.616 116.843 239.848C115.547 239.08 114.515 238.048 113.747 236.752C112.979 235.408 112.595 233.944 112.595 232.36V197.8C112.595 196.216 112.979 194.776 113.747 193.48C114.515 192.136 115.547 191.08 116.843 190.312C118.187 189.544 119.651 189.16 121.235 189.16H155.795C157.379 189.16 158.819 189.544 160.115 190.312C161.459 191.08 162.515 192.136 163.283 193.48C164.051 194.776 164.435 196.216 164.435 197.8V199.888H158.603V197.8C158.603 197.032 158.315 196.384 157.739 195.856C157.211 195.28 156.563 194.992 155.795 194.992H121.235C120.467 194.992 119.795 195.28 119.219 195.856C118.691 196.384 118.427 197.032 118.427 197.8V232.36C118.427 233.128 118.691 233.8 119.219 234.376C119.795 234.904 120.467 235.168 121.235 235.168H155.795C156.563 235.168 157.211 234.904 157.739 234.376C158.315 233.8 158.603 233.128 158.603 232.36V219.544H145.787V213.64H164.435V232.36C164.435 233.944 164.051 235.408 163.283 236.752C162.515 238.048 161.459 239.08 160.115 239.848C158.819 240.616 157.379 241 155.795 241H121.235ZM180.784 241C179.2 241 177.736 240.616 176.392 239.848C175.096 239.032 174.04 237.976 173.224 236.68C172.456 235.336 172.072 233.872 172.072 232.288V217.168H208.648V207.952C208.648 207.184 208.36 206.536 207.784 206.008C207.256 205.432 206.608 205.144 205.84 205.144H172.072V199.24H205.84C207.472 199.24 208.936 199.648 210.232 200.464C211.576 201.232 212.632 202.288 213.4 203.632C214.216 204.928 214.624 206.368 214.624 207.952V241H180.784ZM180.784 235.096H208.648V223.072H177.976V232.288C177.976 233.056 178.24 233.728 178.768 234.304C179.344 234.832 180.016 235.096 180.784 235.096ZM220.802 241V199.24H275.954C277.586 199.24 279.05 199.648 280.346 200.464C281.69 201.232 282.746 202.288 283.514 203.632C284.282 204.928 284.666 206.368 284.666 207.952V241H278.834V207.952C278.834 207.184 278.546 206.536 277.97 206.008C277.394 205.432 276.722 205.144 275.954 205.144H258.602C257.834 205.144 257.162 205.432 256.586 206.008C256.058 206.536 255.794 207.184 255.794 207.952V241H249.818V207.952C249.818 207.184 249.53 206.536 248.954 206.008C248.426 205.432 247.778 205.144 247.01 205.144H229.586C228.818 205.144 228.146 205.432 227.57 206.008C227.042 206.536 226.778 207.184 226.778 207.952V241H220.802ZM291.041 241V199.24H296.945V241H291.041ZM291.041 191.464V185.56H296.945V191.464H291.041ZM305.107 241V199.24H338.947C340.531 199.24 341.971 199.648 343.267 200.464C344.611 201.232 345.667 202.288 346.435 203.632C347.251 204.928 347.659 206.368 347.659 207.952V241H341.755V207.952C341.755 207.184 341.467 206.536 340.891 206.008C340.363 205.432 339.715 205.144 338.947 205.144H313.891C313.123 205.144 312.451 205.432 311.875 206.008C311.299 206.536 311.011 207.184 311.011 207.952V241H305.107ZM362.008 257.488V251.512H388.072C388.84 251.512 389.488 251.224 390.016 250.648C390.592 250.12 390.88 249.472 390.88 248.704V241H363.016C361.432 241 359.968 240.616 358.624 239.848C357.328 239.032 356.272 237.976 355.456 236.68C354.688 235.336 354.304 233.872 354.304 232.288V207.952C354.304 206.368 354.688 204.928 355.456 203.632C356.272 202.288 357.328 201.232 358.624 200.464C359.968 199.648 361.432 199.24 363.016 199.24H388.072C389.704 199.24 391.168 199.648 392.464 200.464C393.808 201.232 394.864 202.288 395.632 203.632C396.4 204.928 396.784 206.368 396.784 207.952V248.704C396.784 250.336 396.4 251.8 395.632 253.096C394.864 254.44 393.808 255.496 392.464 256.264C391.168 257.08 389.704 257.488 388.072 257.488H362.008ZM363.016 235.096H388.072C388.84 235.096 389.488 234.832 390.016 234.304C390.592 233.728 390.88 233.056 390.88 232.288V207.952C390.88 207.184 390.592 206.536 390.016 206.008C389.488 205.432 388.84 205.144 388.072 205.144H363.016C362.248 205.144 361.576 205.432 361 206.008C360.472 206.536 360.208 207.184 360.208 207.952V232.288C360.208 233.056 360.472 233.728 361 234.304C361.576 234.832 362.248 235.096 363.016 235.096Z" fill="white"/>
<defs>
<clipPath id="clip0_1_90">
<rect width="434" height="16" fill="white" transform="translate(219 165)"/>
</clipPath>
</defs>
</svg>
